<svg width="24" height="24" viewBox="0 0 24 24" fill="none" xmlns="http://www.w3.org/2000/svg">
<path d="M12 24C18.6274 24 24 18.6274 24 12C24 5.37258 18.6274 0 12 0C5.37259 0 0 5.37258 0 12C0 18.6274 5.37259 24 12 24Z" fill="#EBEDEC"/>
<path d="M20.1342 20.82C17.9211 19.0017 15.0882 17.9102 12.0004 17.9102C8.91224 17.9102 6.07911 19.0019 3.86591 20.8205C3.86591 20.8205 6.77102 24.0001 12.0004 24.0001C17.2297 24.0001 20.1342 20.82 20.1342 20.82Z" fill="#051320"/>
<path d="M12.0001 14.3851C14.2766 14.3851 16.1221 12.5396 16.1221 10.2631C16.1221 7.98659 14.2766 6.14111 12.0001 6.14111C9.72359 6.14111 7.87811 7.98659 7.87811 10.2631C7.87811 12.5396 9.72359 14.3851 12.0001 14.3851Z" stroke="#01CD98" stroke-width="2.98391" stroke-miterlimit="10"/>
</svg>
