<svg width="96" height="96" viewBox="0 0 96 96" fill="none" xmlns="http://www.w3.org/2000/svg">
<path d="M48 96C74.5097 96 96 74.5097 96 48C96 21.4903 74.5097 0 48 0C21.4903 0 0 21.4903 0 48C0 74.5097 21.4903 96 48 96Z" fill="#EBEDEC"/>
<path d="M80.5368 83.2795C71.6843 76.0064 60.3528 71.6401 48.0015 71.6401C35.649 71.6401 24.3165 76.0072 15.4636 83.2816C15.4636 83.2816 27.0841 95.9997 48.0015 95.9997C68.9188 95.9997 80.5368 83.2795 80.5368 83.2795Z" fill="#051320"/>
<path d="M48.0004 57.5393C57.1064 57.5393 64.4883 50.1574 64.4883 41.0514C64.4883 31.9454 57.1064 24.5635 48.0004 24.5635C38.8944 24.5635 31.5125 31.9454 31.5125 41.0514C31.5125 50.1574 38.8944 57.5393 48.0004 57.5393Z" stroke="#01CD98" stroke-width="11.9357" stroke-miterlimit="10"/>
</svg>
